<svg xmlns="http://www.w3.org/2000/svg" viewBox="0 0 1920 960" width="1920" height="960">
<defs>
  <pattern id="dots" x="0" y="0" width="32" height="32" patternUnits="userSpaceOnUse">
    <circle cx="1.5" cy="1.5" r="1.5" fill="#1E293B"/>
  </pattern>
  <clipPath id="c1"><rect x="880" y="50" width="488" height="270" rx="14"/></clipPath>
  <clipPath id="c2"><rect x="1392" y="50" width="488" height="270" rx="14"/></clipPath>
  <clipPath id="c3"><rect x="880" y="340" width="488" height="270" rx="14"/></clipPath>
  <clipPath id="c4"><rect x="1392" y="340" width="488" height="270" rx="14"/></clipPath>
  <clipPath id="c5"><rect x="880" y="630" width="488" height="270" rx="14"/></clipPath>
  <clipPath id="c6"><rect x="1392" y="630" width="488" height="270" rx="14"/></clipPath>
</defs>

<!-- ── CANVAS ──────────────────────────────────────────────── -->
<rect width="1920" height="960" fill="#0F172A"/>
<rect width="1920" height="960" fill="url(#dots)"/>

<!-- ── LEFT PANEL ─────────────────────────────────────────── -->

<!-- Plugin badge -->
<rect x="80" y="112" width="210" height="34" rx="17" fill="#1E293B"/>
<text x="185" y="134" font-family="-apple-system,BlinkMacSystemFont,'Segoe UI',system-ui,sans-serif" font-size="12" font-weight="700" fill="#818CF8" text-anchor="middle" letter-spacing="2.5">FIGMA PLUGIN</text>

<!-- Heading line 1 -->
<text x="80" y="262" font-family="-apple-system,BlinkMacSystemFont,'Segoe UI',system-ui,sans-serif" font-size="108" font-weight="800" fill="#F1F5F9" letter-spacing="-3">Pattern</text>

<!-- Heading line 2 — orange -->
<text x="80" y="380" font-family="-apple-system,BlinkMacSystemFont,'Segoe UI',system-ui,sans-serif" font-size="108" font-weight="800" fill="#F97316" letter-spacing="-3">Pilot</text>

<!-- Divider -->
<rect x="80" y="404" width="680" height="1" fill="#1E293B"/>

<!-- Tagline -->
<text x="80" y="440" font-family="-apple-system,BlinkMacSystemFont,'Segoe UI',system-ui,sans-serif" font-size="20" fill="#64748B">Production-ready UI patterns for every section of your page.</text>

<!-- Stat pills -->
<rect x="80" y="468" width="158" height="36" rx="18" fill="#1E293B"/>
<text x="159" y="491" font-family="-apple-system,BlinkMacSystemFont,'Segoe UI',system-ui,sans-serif" font-size="13" font-weight="600" fill="#CBD5E1" text-anchor="middle">21 Sections</text>

<rect x="252" y="468" width="168" height="36" rx="18" fill="#1E293B"/>
<text x="336" y="491" font-family="-apple-system,BlinkMacSystemFont,'Segoe UI',system-ui,sans-serif" font-size="13" font-weight="600" fill="#CBD5E1" text-anchor="middle">126 Patterns</text>

<rect x="434" y="468" width="190" height="36" rx="18" fill="#1E293B"/>
<text x="529" y="491" font-family="-apple-system,BlinkMacSystemFont,'Segoe UI',system-ui,sans-serif" font-size="13" font-weight="600" fill="#CBD5E1" text-anchor="middle">3 Breakpoints</text>

<!-- Feature bullets -->
<circle cx="90" cy="551" r="5" fill="#6366F1"/>
<text x="110" y="557" font-family="-apple-system,BlinkMacSystemFont,'Segoe UI',system-ui,sans-serif" font-size="17" fill="#94A3B8">All frames use Figma Auto Layout</text>

<circle cx="90" cy="591" r="5" fill="#6366F1"/>
<text x="110" y="597" font-family="-apple-system,BlinkMacSystemFont,'Segoe UI',system-ui,sans-serif" font-size="17" fill="#94A3B8">Desktop · Tablet · Mobile breakpoints</text>

<circle cx="90" cy="631" r="5" fill="#6366F1"/>
<text x="110" y="637" font-family="-apple-system,BlinkMacSystemFont,'Segoe UI',system-ui,sans-serif" font-size="17" fill="#94A3B8">No account · No subscription · No paywalls</text>

<!-- 100% FREE badge -->
<rect x="80" y="694" width="310" height="96" rx="20" fill="#F97316"/>
<text x="235" y="752" font-family="-apple-system,BlinkMacSystemFont,'Segoe UI',system-ui,sans-serif" font-size="40" font-weight="800" fill="#FFFFFF" text-anchor="middle" letter-spacing="-1">100% FREE</text>
<text x="235" y="776" font-family="-apple-system,BlinkMacSystemFont,'Segoe UI',system-ui,sans-serif" font-size="13" fill="rgba(255,255,255,0.75)" text-anchor="middle">No account · No subscription · Forever</text>

<!-- Panel separator -->
<rect x="840" y="0" width="2" height="960" fill="#1E293B"/>

<!-- ── CARD 1 — Hero Section (dark) ──────────────────────── -->
<rect x="880" y="50" width="488" height="270" rx="14" fill="#1E293B"/>
<!-- Image placeholder -->
<rect x="897" y="66" width="454" height="152" rx="8" fill="#334155"/>
<!-- Mountain shape suggestion -->
<polygon points="1010,218 1060,168 1110,218" fill="#475569"/>
<polygon points="1090,218 1150,148 1210,218" fill="#4B5563"/>
<circle cx="1210" cy="162" r="14" fill="#60A5FA" opacity="0.4"/>
<!-- Label/eyebrow -->
<rect x="897" y="232" width="68" height="7" rx="3.5" fill="#6366F1"/>
<!-- Heading -->
<rect x="897" y="249" width="230" height="13" rx="6.5" fill="#94A3B8"/>
<!-- Subtext -->
<rect x="897" y="271" width="170" height="8" rx="4" fill="#64748B"/>
<!-- Buttons -->
<rect x="897" y="293" width="114" height="22" rx="11" fill="#F97316"/>
<rect x="1021" y="293" width="90" height="22" rx="11" fill="#334155"/>

<!-- ── CARD 2 — Feature Grid (light) ──────────────────────── -->
<rect x="1392" y="50" width="488" height="270" rx="14" fill="#F9FAFB"/>
<!-- Section label -->
<rect x="1412" y="72" width="58" height="7" rx="3.5" fill="#6366F1"/>
<!-- Heading -->
<rect x="1412" y="90" width="210" height="14" rx="7" fill="#111827"/>
<!-- Subtitle -->
<rect x="1412" y="114" width="270" height="8" rx="4" fill="#9CA3AF"/>
<!-- Feature card 1 -->
<rect x="1412" y="140" width="136" height="154" rx="10" fill="#FFFFFF"/>
<rect x="1428" y="156" width="32" height="32" rx="7" fill="#EDE9FE"/>
<rect x="1428" y="202" width="80" height="9" rx="4.5" fill="#374151"/>
<rect x="1428" y="220" width="96" height="7" rx="3.5" fill="#D1D5DB"/>
<rect x="1428" y="235" width="72" height="7" rx="3.5" fill="#D1D5DB"/>
<!-- Feature card 2 -->
<rect x="1562" y="140" width="136" height="154" rx="10" fill="#FFFFFF"/>
<rect x="1578" y="156" width="32" height="32" rx="7" fill="#FEF3C7"/>
<rect x="1578" y="202" width="80" height="9" rx="4.5" fill="#374151"/>
<rect x="1578" y="220" width="96" height="7" rx="3.5" fill="#D1D5DB"/>
<rect x="1578" y="235" width="72" height="7" rx="3.5" fill="#D1D5DB"/>
<!-- Feature card 3 -->
<rect x="1712" y="140" width="152" height="154" rx="10" fill="#FFFFFF"/>
<rect x="1728" y="156" width="32" height="32" rx="7" fill="#DCFCE7"/>
<rect x="1728" y="202" width="80" height="9" rx="4.5" fill="#374151"/>
<rect x="1728" y="220" width="96" height="7" rx="3.5" fill="#D1D5DB"/>
<rect x="1728" y="235" width="72" height="7" rx="3.5" fill="#D1D5DB"/>

<!-- ── CARD 3 — Stats / CTA (white) ──────────────────────── -->
<rect x="880" y="340" width="488" height="270" rx="14" fill="#FFFFFF"/>
<!-- Eyebrow -->
<rect x="900" y="362" width="56" height="7" rx="3.5" fill="#F97316"/>
<!-- Heading lines -->
<rect x="900" y="380" width="370" height="18" rx="9" fill="#111827"/>
<rect x="900" y="408" width="270" height="18" rx="9" fill="#111827"/>
<!-- Subtext -->
<rect x="900" y="440" width="420" height="8" rx="4" fill="#9CA3AF"/>
<rect x="900" y="456" width="340" height="8" rx="4" fill="#9CA3AF"/>
<!-- Divider -->
<rect x="880" y="482" width="488" height="1" fill="#F3F4F6"/>
<!-- 3 stat blocks -->
<rect x="900" y="496" width="118" height="74" rx="10" fill="#F9FAFB"/>
<rect x="914" y="510" width="60" height="18" rx="4" fill="#6366F1" opacity="0.18"/>
<rect x="914" y="538" width="52" height="7" rx="3.5" fill="#9CA3AF"/>
<rect x="1034" y="496" width="118" height="74" rx="10" fill="#F9FAFB"/>
<rect x="1048" y="510" width="60" height="18" rx="4" fill="#F97316" opacity="0.18"/>
<rect x="1048" y="538" width="52" height="7" rx="3.5" fill="#9CA3AF"/>
<rect x="1168" y="496" width="118" height="74" rx="10" fill="#F9FAFB"/>
<rect x="1182" y="510" width="60" height="18" rx="4" fill="#10B981" opacity="0.18"/>
<rect x="1182" y="538" width="52" height="7" rx="3.5" fill="#9CA3AF"/>
<!-- CTA -->
<rect x="1302" y="510" width="52" height="36" rx="8" fill="#111827" opacity="0"/>
<rect x="1302" y="496" width="58" height="74" rx="10" fill="#111827"/>
<rect x="1310" y="528" width="42" height="8" rx="4" fill="white" opacity="0.8"/>

<!-- ── CARD 4 — Pricing (indigo) ──────────────────────────── -->
<rect x="1392" y="340" width="488" height="270" rx="14" fill="#4F46E5"/>
<!-- Price col 1 -->
<rect x="1408" y="360" width="136" height="230" rx="10" fill="rgba(255,255,255,0.12)"/>
<rect x="1424" y="378" width="72" height="8" rx="4" fill="rgba(255,255,255,0.55)"/>
<rect x="1424" y="398" width="58" height="20" rx="4" fill="rgba(255,255,255,0.8)"/>
<rect x="1424" y="432" width="88" height="7" rx="3.5" fill="rgba(255,255,255,0.35)"/>
<rect x="1424" y="447" width="88" height="7" rx="3.5" fill="rgba(255,255,255,0.35)"/>
<rect x="1424" y="462" width="88" height="7" rx="3.5" fill="rgba(255,255,255,0.35)"/>
<rect x="1424" y="540" width="104" height="24" rx="12" fill="rgba(255,255,255,0.18)"/>
<!-- Price col 2 (active, white) — slightly taller -->
<rect x="1558" y="350" width="152" height="250" rx="12" fill="#FFFFFF"/>
<rect x="1576" y="370" width="72" height="8" rx="4" fill="#4F46E5"/>
<rect x="1576" y="390" width="58" height="22" rx="4" fill="#111827"/>
<rect x="1576" y="428" width="100" height="7" rx="3.5" fill="#6B7280"/>
<rect x="1576" y="445" width="100" height="7" rx="3.5" fill="#6B7280"/>
<rect x="1576" y="462" width="100" height="7" rx="3.5" fill="#6B7280"/>
<rect x="1576" y="479" width="100" height="7" rx="3.5" fill="#6B7280"/>
<rect x="1576" y="546" width="116" height="28" rx="14" fill="#4F46E5"/>
<!-- Price col 3 -->
<rect x="1724" y="360" width="148" height="230" rx="10" fill="rgba(255,255,255,0.12)"/>
<rect x="1740" y="378" width="72" height="8" rx="4" fill="rgba(255,255,255,0.55)"/>
<rect x="1740" y="398" width="58" height="20" rx="4" fill="rgba(255,255,255,0.8)"/>
<rect x="1740" y="432" width="88" height="7" rx="3.5" fill="rgba(255,255,255,0.35)"/>
<rect x="1740" y="447" width="88" height="7" rx="3.5" fill="rgba(255,255,255,0.35)"/>
<rect x="1740" y="462" width="88" height="7" rx="3.5" fill="rgba(255,255,255,0.35)"/>
<rect x="1740" y="540" width="120" height="24" rx="12" fill="rgba(255,255,255,0.18)"/>

<!-- ── CARD 5 — Sign In (dark) ────────────────────────────── -->
<rect x="880" y="630" width="488" height="270" rx="14" fill="#111827"/>
<!-- Centred auth card -->
<rect x="984" y="648" width="280" height="232" rx="14" fill="#1E293B"/>
<!-- Logo -->
<rect x="1108" y="664" width="32" height="32" rx="8" fill="#F97316"/>
<!-- Heading and subtext rects -->
<rect x="1010" y="710" width="168" height="12" rx="6" fill="#F1F5F9"/>
<rect x="1040" y="732" width="108" height="7" rx="3.5" fill="#64748B"/>
<!-- Input 1 -->
<rect x="1004" y="756" width="232" height="32" rx="8" fill="#0F172A"/>
<!-- Input 2 -->
<rect x="1004" y="796" width="232" height="32" rx="8" fill="#0F172A"/>
<!-- Sign-in button -->
<rect x="1004" y="840" width="232" height="28" rx="14" fill="#6366F1"/>
<!-- Footer text -->
<rect x="1064" y="876" width="112" height="7" rx="3.5" fill="#374151"/>

<!-- ── CARD 6 — Contact Form (light) ─────────────────────── -->
<rect x="1392" y="630" width="488" height="270" rx="14" fill="#F9FAFB"/>
<!-- Heading -->
<rect x="1412" y="654" width="172" height="13" rx="6.5" fill="#111827"/>
<rect x="1412" y="678" width="240" height="8" rx="4" fill="#9CA3AF"/>
<!-- Name row — 2 inputs side by side -->
<rect x="1412" y="704" width="140" height="30" rx="7" fill="#FFFFFF"/>
<rect x="1412" y="704" width="140" height="30" rx="7" fill="none" stroke="#E5E7EB" stroke-width="1"/>
<rect x="1564" y="704" width="140" height="30" rx="7" fill="#FFFFFF"/>
<rect x="1564" y="704" width="140" height="30" rx="7" fill="none" stroke="#E5E7EB" stroke-width="1"/>
<!-- Email -->
<rect x="1412" y="742" width="292" height="30" rx="7" fill="#FFFFFF"/>
<rect x="1412" y="742" width="292" height="30" rx="7" fill="none" stroke="#E5E7EB" stroke-width="1"/>
<!-- Subject -->
<rect x="1412" y="780" width="292" height="30" rx="7" fill="#FFFFFF"/>
<rect x="1412" y="780" width="292" height="30" rx="7" fill="none" stroke="#E5E7EB" stroke-width="1"/>
<!-- Message -->
<rect x="1412" y="818" width="292" height="44" rx="7" fill="#FFFFFF"/>
<rect x="1412" y="818" width="292" height="44" rx="7" fill="none" stroke="#E5E7EB" stroke-width="1"/>
<!-- Submit button -->
<rect x="1572" y="870" width="132" height="22" rx="11" fill="#F97316"/>

</svg>
